<?xml version="1.0" standalone="no"?>
<!DOCTYPE svg PUBLIC "-//W3C//DTD SVG 20010904//EN"
 "http://www.w3.org/TR/2001/REC-SVG-20010904/DTD/svg10.dtd">
<svg version="1.0" xmlns="http://www.w3.org/2000/svg"
 width="512.000000pt" height="512.000000pt" viewBox="0 0 512.000000 512.000000"
 preserveAspectRatio="xMidYMid meet">
<metadata>
Created by potrace 1.11, written by Peter Selinger 2001-2013
</metadata>
<g transform="translate(0.000000,512.000000) scale(0.100000,-0.100000)"
fill="#000000" stroke="none">
<path d="M2149 4727 c-66 -44 -76 -138 -19 -193 l29 -29 1 -1095 0 -1096 -696
-854 c-383 -470 -705 -867 -716 -882 l-19 -28 1847 0 1846 0 -38 48 c-82 101
-957 1168 -968 1179 -9 10 -49 -32 -176 -187 -91 -109 -169 -198 -175 -196 -5
1 -184 204 -397 451 l-388 448 0 368 0 369 435 0 435 0 0 -156 0 -156 29 -29
29 -29 707 0 c688 0 706 0 700 19 -32 101 -197 701 -197 716 0 11 45 179 101
373 56 194 101 355 101 358 0 2 -222 4 -494 4 l-494 0 -4 155 c-3 154 -3 155
-31 182 l-27 28 -644 3 -643 3 33 33 c30 30 34 40 34 86 0 47 -4 56 -39 91
-33 34 -45 39 -83 39 -30 0 -56 -8 -79 -23z"/>
</g>
</svg>
